<?xml version="1.0" encoding="UTF-8" standalone="no"?>
<!-- Created with Inkscape (http://www.inkscape.org/) -->

<svg
   width="210mm"
   height="297mm"
   viewBox="0 0 210 297"
   version="1.1"
   id="svg1"
   xml:space="preserve"
   inkscape:version="1.4.2 (ebf0e940, 2025-05-08)"
   sodipodi:docname="logo_audityo_pro.svg"
   xmlns:inkscape="http://www.inkscape.org/namespaces/inkscape"
   xmlns:sodipodi="http://sodipodi.sourceforge.net/DTD/sodipodi-0.dtd"
   xmlns="http://www.w3.org/2000/svg"
   xmlns:svg="http://www.w3.org/2000/svg"><sodipodi:namedview
     id="namedview1"
     pagecolor="#ffffff"
     bordercolor="#666666"
     borderopacity="1.0"
     inkscape:showpageshadow="2"
     inkscape:pageopacity="0.0"
     inkscape:pagecheckerboard="0"
     inkscape:deskcolor="#d1d1d1"
     inkscape:document-units="mm"
     showguides="true"
     inkscape:zoom="0.68061167"
     inkscape:cx="561.25984"
     inkscape:cy="66.116997"
     inkscape:current-layer="layer1"><sodipodi:guide
       position="168.98631,147.87239"
       orientation="0,-1"
       id="guide116"
       inkscape:locked="false" /><sodipodi:guide
       position="-5.8450601,169.57769"
       orientation="1,0"
       id="guide117"
       inkscape:locked="false" /><sodipodi:guide
       position="34.659055,123.89207"
       orientation="1,0"
       id="guide118"
       inkscape:locked="false" /><sodipodi:guide
       position="156.99615,138.31773"
       orientation="1,0"
       id="guide119"
       inkscape:locked="false" /><sodipodi:guide
       position="68.079316,216.48465"
       orientation="0,-1"
       id="guide120"
       inkscape:locked="false" /><sodipodi:guide
       position="128.71251,134.74492"
       orientation="1,0"
       id="guide121"
       inkscape:locked="false" /></sodipodi:namedview><defs
     id="defs1" /><g
     inkscape:label="Capa 1"
     inkscape:groupmode="layer"
     id="layer1"><g
       id="g148"
       transform="translate(31.099476,-45.094241)"><g
         id="g125"><g
           id="g117"
           transform="translate(8.4168867,-47.228087)"><path
             style="fill:#1d3c73;fill-opacity:1"
             d="m -9.9972441,116.89952 c -0.1203139,-0.12032 -0.1417249,-2.15928 -0.02462,-2.3442 0.09378,-0.14808 2.1711753,-0.14634 2.3498764,0.002 0.151835,0.12601 0.1620118,2.19175 0.011539,2.34223 -0.068271,0.0683 -0.4515556,0.1016 -1.1684005,0.1016 -0.716844,0 -1.100129,-0.0333 -1.168399,-0.1016 z"
             id="path100" /><path
             style="fill:#66bc41;fill-opacity:1"
             d="m 30.765706,119.60462 c -0.07047,-0.19791 -0.150583,-0.52373 -0.178036,-0.72405 -0.13527,-0.987 -1.124144,-1.78073 -2.453416,-1.96926 -0.551217,-0.0782 -0.817249,-0.1856 -0.714383,-0.28846 0.02333,-0.0233 0.34158,-0.1043 0.707212,-0.17991 1.153367,-0.23852 1.722379,-0.56434 2.176215,-1.2461 0.214475,-0.32218 0.260588,-0.50733 0.476724,-1.91409 0.120418,-0.78376 0.3538,-0.30644 0.3538,0.72361 0,0.70095 0.454077,1.55553 1.019807,1.91931 0.295542,0.19004 1.302822,0.48278 1.661166,0.48278 0.598217,0 0.721865,0.20875 0.176527,0.29802 -1.213758,0.1987 -1.885696,0.48055 -2.233862,0.93702 -0.298182,0.39093 -0.622741,1.18624 -0.623246,1.52721 -5.47e-4,0.3693 -0.09322,0.79375 -0.173306,0.79375 -0.03689,0 -0.124735,-0.16192 -0.195202,-0.35983 z"
             id="path99" /><path
             style="fill:#203a76;fill-opacity:1"
             d="m -13.361057,121.42495 c -0.03465,-0.0815 -0.07449,-0.65532 -0.08854,-1.27518 -0.03395,-1.49786 -0.0745,-1.45532 1.387239,-1.45532 0.775895,0 1.128889,0.0325 1.240537,0.11411 0.135831,0.0993 0.160738,0.27163 0.192211,1.32974 0.03243,1.09047 0.02073,1.22691 -0.113719,1.32522 -0.105988,0.0775 -0.501999,0.1096 -1.352304,0.1096 -1.064725,0 -1.20964,-0.017 -1.265422,-0.14817 z"
             id="path98" /><path
             style="fill:#203a76;fill-opacity:1"
             d="m -5.3575114,123.00813 c -0.20955,-0.0373 -0.6160089,-0.0706 -0.903242,-0.0741 -0.6996864,-0.008 -0.7900913,-0.0526 -0.7900913,-0.38599 0,-0.15232 -0.055282,-0.40925 -0.1228486,-0.57096 -0.1732887,-0.41474 -0.084818,-3.23002 0.1065022,-3.38907 0.2023703,-0.16823 2.8858982,-0.19685 3.1066797,-0.0331 0.1570327,0.11645 0.1709879,0.23832 0.1921109,1.67772 0.012528,0.85369 -0.011122,1.60358 -0.052556,1.66644 -0.041433,0.0629 -0.2040831,0.14043 -0.3614442,0.17237 -0.2645075,0.0537 -0.2880716,0.0849 -0.3120755,0.41344 -0.01819,0.24895 -0.080875,0.39382 -0.2093389,0.4838 -0.1008559,0.0706 -0.2034719,0.12367 -0.2280356,0.11784 -0.024564,-0.006 -0.2161111,-0.0411 -0.4256611,-0.0784 z"
             id="path96" /><path
             style="fill:#56b541;fill-opacity:1"
             d="m -10.634607,126.21595 c -0.121208,-0.0678 -0.141571,-0.24059 -0.141571,-1.20109 0,-0.75967 0.0328,-1.15466 0.1016,-1.22346 0.06687,-0.0669 0.42418,-0.1016 1.0452109,-0.1016 1.249394,0 1.223856,-0.0287 1.223856,1.37751 0,0.76236 -0.03027,1.08685 -0.105834,1.13432 -0.152938,0.0961 -1.9554469,0.10823 -2.1232619,0.0143 z"
             id="path94" /><path
             style="fill:#203a76;fill-opacity:1"
             d="m -6.9276932,126.27595 c -0.1962425,-0.19625 -0.2078182,-0.26137 -0.2078182,-1.16916 0,-1.3262 -0.035563,-1.29109 1.3025602,-1.28593 0.5842022,0.002 1.092093,0.0338 1.1286462,0.0702 0.098482,0.0979 0.1638519,2.15962 0.073696,2.32429 -0.1327114,0.24239 -0.2356761,0.26579 -1.175251,0.26713 -0.8584101,0.001 -0.926658,-0.0114 -1.1218333,-0.20652 z"
             id="path93" /><path
             style="fill:#000000"
             d="m -20.464463,130.66872 c -0.195591,-0.19559 -0.195591,-2.41699 0,-2.61258 0.183226,-0.18322 2.289682,-0.19513 2.536931,-0.0143 0.143537,0.10495 0.166093,0.25521 0.194705,1.29709 0.04226,1.53888 0.116331,1.46286 -1.425351,1.46286 -0.953691,0 -1.198135,-0.0249 -1.306285,-0.13304 z"
             id="path92" /><path
             style="fill:#56b541;fill-opacity:1"
             d="m -11.982678,135.11298 c -0.127217,-0.0741 -0.148166,-0.22098 -0.148166,-1.03882 0,-0.56163 -0.03705,-0.98958 -0.09028,-1.04281 -0.05927,-0.0593 -0.590092,-0.0803 -1.545166,-0.0613 -0.800187,0.0159 -1.55966,0.006 -1.687718,-0.0212 l -0.232833,-0.0502 v -1.05056 c 0,-1.0498 1.56e-4,-1.05062 0.217178,-1.13313 0.119448,-0.0454 0.958591,-0.0826 1.864762,-0.0826 h 1.647584 l 0.08257,-0.21718 c 0.103688,-0.27272 0.106257,-1.64629 0.0034,-1.80885 -0.05989,-0.0946 -0.276574,-0.11725 -0.993537,-0.10368 -0.504318,0.01 -0.968024,-0.0166 -1.030458,-0.058 -0.143317,-0.0952 -0.179817,-1.99778 -0.04099,-2.13661 0.09833,-0.0983 1.767406,-0.12868 2.055093,-0.0374 0.159957,0.0508 0.173748,0.12233 0.173748,0.90167 0,0.46559 0.03944,0.92022 0.08765,1.01029 0.08264,0.15442 0.195745,0.16377 1.9806089,0.16377 1.6480298,0 1.8996119,0.0173 1.944354,0.13393 0.1027921,0.26787 0.056834,2.13871 -0.054225,2.20735 -0.058089,0.0359 -0.4676639,0.0553 -0.910167,0.0431 -1.09086,-0.03 -1.13219,0.004 -1.131963,0.92787 9.6e-5,0.39016 0.022,1.29186 0.04868,2.00377 0.04007,1.0694 0.02699,1.31592 -0.07526,1.41817 -0.147703,0.1477 -1.9212809,0.17418 -2.1648409,0.0323 z"
             id="path91" /><path
             style="fill:#56b541;fill-opacity:1"
             d="m -17.857503,135.11898 -0.242341,-0.0429 -0.05045,-0.97311 c -0.06687,-1.28999 -0.08126,-1.2735 1.101372,-1.26251 1.399001,0.013 1.286488,-0.0913 1.258699,1.16704 l -0.02362,1.0697 -0.900659,0.0423 c -0.495363,0.0233 -1.009713,0.023 -1.143,-5.6e-4 z"
             id="path90" /><g
             id="g105" /><path
             style="fill:#56b541;fill-opacity:1"
             d="m -12.652621,138.68963 c 0.0253,-0.12806 -0.03335,-0.42654 -0.07406,-0.77579 -0.04071,-0.34925 -0.0757,-0.70167 -0.07774,-0.78316 -0.0034,-0.13471 -0.12528,-0.14817 -1.341451,-0.14817 -0.92757,0 -1.368885,-0.0311 -1.439333,-0.1016 -0.06443,-0.0644 -0.1016,-0.38911 -0.1016,-0.88739 0,-0.93103 -0.135799,-0.84995 1.503909,-0.89792 0.744982,-0.0218 1.147502,-0.002 1.19598,0.0592 0.04019,0.0506 0.09073,0.38105 0.112315,0.73427 0.02158,0.35323 0.06667,0.68661 0.100182,0.74084 0.04041,0.0654 0.380102,0.099 1.008444,0.0999 0.521126,7.1e-4 1.002335,0.036 1.069351,0.0784 0.130685,0.0827 0.240269,0.75413 0.252007,1.5441 0.01051,0.70724 -0.05758,0.82876 -1.229175,0.74688 l -0.87817,-0.0614"
             id="path116" /><path
             style="fill:#000000"
             d="m -18.609068,141.86013 c -0.155034,-0.11357 -0.16811,-0.22409 -0.16811,-1.42091 v -1.29777 l -1.156128,0.0305 c -1.139126,0.03 -1.158065,0.0275 -1.287917,-0.17068 -0.178371,-0.27223 -0.149434,-2.04632 0.03629,-2.22507 0.136717,-0.13158 1.851094,-0.21492 2.165777,-0.10528 0.242969,0.0846 0.281793,0.27349 0.283152,1.37729 l 0.0012,0.93872 1.301333,-0.0396 c 1.735151,-0.0527 1.662,-0.12082 1.662,1.54683 0,1.1789 -0.0073,1.23032 -0.1905,1.34641 -0.277856,0.17605 -2.411908,0.19181 -2.647057,0.0195 z"
             id="path114" /><path
             style="fill:#5ab347;fill-opacity:1"
             d="m -2.4765886,116.11485 c -0.093846,-0.11308 -0.088451,-2.22809 0.00632,-2.47922 0.070104,-0.18576 0.1031535,-0.1905 1.3270567,-0.1905 0.86334837,0 1.28687787,0.0317 1.35676217,0.1016 0.069526,0.0695 0.1016,0.48288 0.1016,1.30935 0,1.11827 -0.012459,1.21442 -0.1681489,1.29775 -0.2173889,0.11634 -2.52311917,0.0821 -2.62359487,-0.039 z"
             id="path112" /><path
             style="fill:#65b749;fill-opacity:1"
             d="m 2.8551553,116.84442 c -0.1164167,-0.0163 -0.2396584,-0.0735 -0.2738703,-0.127 -0.088013,-0.13766 -0.077581,-1.85101 0.012133,-1.99267 0.056122,-0.0886 0.314749,-0.11839 1.0555122,-0.12147 0.5396464,-0.002 1.0104365,0.0251 1.0462001,0.0607 0.099375,0.099 0.1245656,1.85371 0.028691,1.99847 -0.060891,0.0919 -0.301221,0.13869 -0.8705552,0.16933 -0.4325445,0.0233 -0.8816945,0.029 -0.9981111,0.0126 z"
             id="path111" /><path
             style="fill:#5ab347;fill-opacity:1"
             d="m -2.140967,122.48756 c -0.1462094,-0.0541 -0.1623899,-0.17462 -0.1855284,-1.38236 -0.013942,-0.72772 0.00512,-1.37734 0.042358,-1.44361 0.053281,-0.0948 0.3088703,-0.12047 1.1995753,-0.12047 0.62252747,0 1.19213427,-0.0231 1.26579287,-0.0514 0.1123953,-0.0431 0.1339246,-0.22428 0.1339246,-1.12682 0,-0.73265 0.034086,-1.12204 0.1069408,-1.22168 0.092117,-0.12598 0.2358821,-0.14289 1.03716663,-0.12201 l 0.9302259,0.0242 0.073893,1.16178 0.073893,1.16178 1.1114401,0.0236 1.1114399,0.0236 0.024571,0.97366 c 0.036064,1.42905 0.1180344,1.32268 -1.060372,1.37603 -0.6031096,0.0273 -1.0370135,0.012 -1.0996337,-0.0388 -0.069602,-0.0565 -0.1111424,-0.44814 -0.127,-1.1974 l -0.023566,-1.11345 -0.6773333,-0.0264 c -0.3725334,-0.0145 -0.84231407,-0.002 -1.04395713,0.0274 l -0.3666238,0.0537 0.024046,1.43281 c 0.017855,1.06389 -0.00333,1.46014 -0.082275,1.53896 -0.1162912,0.11611 -2.17598647,0.15526 -2.46897887,0.0469 z"
             id="path110" /><path
             style="fill:#5ab347;fill-opacity:1"
             d="m 16.658975,124.14511 c -0.922855,-0.77653 -2.12428,-1.55376 -3.26982,-2.11532 -0.70235,-0.3443 -1.332905,-0.62601 -1.401233,-0.62601 -0.06833,0 -0.160428,-0.0334 -0.204666,-0.0742 -0.184278,-0.16989 -2.046153,-0.68045 -2.9591008,-0.81144 -0.8025745,-0.11515 -1.4468702,-0.2507 -1.5451666,-0.32507 -0.058208,-0.044 -0.1058334,-0.18971 -0.1058334,-0.3237 0,-0.46955 -0.2327642,-0.58214 -1.2065,-0.5836 -0.4773083,-7.1e-4 -0.9166833,-0.0323 -0.9763888,-0.0702 -0.080974,-0.0514 -0.102486,-0.33608 -0.084667,-1.12054 l 0.023889,-1.05165 1.010728,-0.024 c 0.5674813,-0.0135 1.0594524,-0.0644 1.1218333,-0.1162 0.073118,-0.0607 0.1111053,-0.30341 0.1111053,-0.70992 0,-0.81037 0.034542,-0.88556 0.406831,-0.88556 1.1627124,0 4.187221,0.62889 5.441813,1.13153 0.306337,0.12273 0.592087,0.22443 0.635,0.22601 0.04291,0.002 0.230423,0.0765 0.41669,0.16646 0.186267,0.09 0.370278,0.16488 0.408914,0.16646 0.132149,0.005 1.862371,0.86932 2.335745,1.16626 1.996833,1.25257 3.901674,2.79152 3.901674,3.15221 0,0.0995 -0.101817,0.23727 -0.237292,0.32115 -0.282247,0.17476 -0.730447,0.53542 -1.632822,1.31392 -1.053489,0.90886 -1.704863,1.41534 -1.820265,1.41534 -0.05865,0 -0.225356,-0.0999 -0.370468,-0.22201 z"
             id="path109" /><path
             style="fill:#6fbc3c;fill-opacity:1"
             d="m 4.1039882,147.08003 c -0.351747,-0.0692 -0.833304,-0.50254 -2.032,-1.82847 -1.97995997,-2.19012 -4.187207,-4.56495 -5.9153234,-6.36443 -2.0083454,-2.09129 -2.0010096,-2.08138 -2.0010096,-2.70511 0,-0.45376 0.037527,-0.57177 0.3120927,-0.98145 0.4604082,-0.68696 1.440307,-1.71644 1.9657571,-2.06521 0.6181832,-0.41033 1.0020272,-0.41374 1.6024682,-0.0143 0.538826,0.3585 2.25630803,1.90842 4.523064,4.08179 1.412857,1.35465 1.740816,1.6301 1.862984,1.56472 0.08155,-0.0437 0.491026,-0.45262 0.909951,-0.90884 0.418926,-0.45622 0.895033,-0.9686 1.058016,-1.13863 0.162984,-0.17003 0.867834,-0.92245 1.566334,-1.67206 2.0323361,-2.18104 7.1727798,-7.23153 8.2549998,-8.11056 0.162983,-0.13238 0.639233,-0.54948 1.058333,-0.92688 0.4191,-0.37741 0.935194,-0.81674 1.146875,-0.9763 0.211681,-0.15956 0.764131,-0.60205 1.227667,-0.98332 2.85028,-2.3444 4.200424,-3.34688 6.557792,-4.86915 2.324707,-1.50118 2.244566,-1.4598 2.340924,-1.20869 0.05958,0.15525 -0.194034,0.51847 -1.03295,1.47938 -0.345562,0.39582 -0.998965,1.15782 -1.452006,1.69334 -0.453042,0.53551 -0.986256,1.14511 -1.18492,1.35466 -0.198664,0.20955 -0.426746,0.47625 -0.506849,0.59267 -0.0801,0.11642 -0.409865,0.51647 -0.732807,0.889 -0.322942,0.37253 -0.667692,0.77258 -0.766113,0.889 -0.09842,0.11642 -0.469861,0.55457 -0.825423,0.97367 -0.355562,0.4191 -0.850862,1.03237 -1.100667,1.36283 -0.249804,0.33045 -0.682789,0.89093 -0.962189,1.24549 -1.846376,2.34309 -2.370824,3.00402 -2.532345,3.19134 -0.100379,0.11642 -0.615843,0.76412 -1.145476,1.43934 -1.079064,1.37567 -1.88761,2.39171 -1.953917,2.45533 -0.02427,0.0233 -0.557751,0.68967 -1.185524,1.48085 -0.627773,0.79119 -1.206522,1.51509 -1.286109,1.60867 -0.259825,0.30551 -3.6458818,4.73038 -3.8766308,5.06594 -0.180329,0.26224 -1.392744,1.86378 -1.888855,2.49508 -0.23032,0.29308 -0.557743,0.60378 -0.727607,0.69044 -0.335677,0.17125 -0.942067,0.26602 -1.278537,0.19981 z"
             id="path108" /><path
             id="path2"
             style="fill:#243a74;fill-opacity:1"
             d="m -7.9144447,150.00418 c 0.1347714,-0.13477 0.1408595,-1.89614 0.00684,-1.97897 -0.1752726,-0.10832 -1.7795174,-0.13186 -1.9047284,-0.0279 -0.08704,0.0722 -0.117178,0.34136 -0.117178,1.04644 0,0.52205 0.0254,0.97459 0.05644,1.00563 0.103708,0.10371 1.8500195,0.0635 1.9586222,-0.0452 z m -6.1863703,5.11266 c -0.07631,-0.0146 -0.165708,-0.10988 -0.198669,-0.21166 -0.103566,-0.31981 -0.06033,-2.16641 0.05395,-2.30411 0.15532,-0.18715 2.131915,-0.17997 2.320313,0.008 0.106498,0.1065 0.133047,0.3404 0.133047,1.17221 0,1.34663 0.0131,1.33248 -1.249537,1.3494 -0.506198,0.007 -0.982793,3.7e-4 -1.0591,-0.0143 z m 1.380089,-16.00231 0.100482,1.02182 0.02377,1.03717 1.098403,0.0423 c 1.349655,0.052 1.31153,0.01 1.313349,1.4626 0.0015,1.19993 -0.04402,1.16059 1.3023011,1.12535 0.6290219,-0.0165 0.9458337,0.009 1.0489189,0.0842 0.1300279,0.0949 0.1527579,0.32388 0.1900276,1.91399 l 0.042333,1.80616 1.2219058,0.0236 c 0.7246464,0.014 1.2673194,0.0613 1.3335,0.1162 0.08172,0.0678 0.1115942,0.38296 0.1115942,1.17721 0,1.00864 0.011806,1.08834 0.1685895,1.1381 0.092724,0.0294 0.6178054,0.0437 1.1668471,0.0316 0.5490418,-0.012 1.0446765,0.007 1.1014106,0.0419 0.071337,0.0441 0.1031528,0.3616 0.1031528,1.02945 0,1.2084 -0.04419,1.17358 1.41262127,1.11301 1.4154883,-0.0589 1.327103,-0.18404 1.3813787,1.95664 l 0.042333,1.66966 0.83417113,0.0243 c 0.5423411,0.0158 0.8755679,-0.01 0.9525,-0.0739 0.089115,-0.074 0.1183289,-0.34529 0.1183289,-1.09904 0,-1.27569 -0.011737,-1.26443 1.3180499,-1.26443 1.1031475,0 1.1956299,0.0538 1.2376383,0.72028 l 0.026645,0.42272 1.2276666,-0.0264 c 0.6752167,-0.0146 1.4562667,-0.0791 1.7356667,-0.14349 0.2794,-0.0644 0.71755,-0.14257 0.9736667,-0.17379 0.2561166,-0.0312 0.531797,-0.0915 0.6126229,-0.13402 0.080826,-0.0425 0.309426,-0.11078 0.508,-0.15178 0.6095003,-0.12582 2.0083963,-0.65837 2.9433773,-1.12052 1.766684,-0.87326 3.249637,-1.94103 4.616302,-3.32387 2.494159,-2.52368 4.058109,-5.59162 4.750777,-9.31941 0.123705,-0.66575 0.157215,-1.25373 0.156823,-2.75167 -5.04e-4,-1.9272 -0.09155,-2.76929 -0.426465,-3.94444 -0.177003,-0.62107 -0.157799,-0.73923 0.186677,-1.14872 0.170196,-0.20231 0.521117,-0.65359 0.779825,-1.00284 0.258707,-0.34925 0.53026,-0.69996 0.603452,-0.77935 0.07319,-0.0794 0.474746,-0.6213 0.892342,-1.20424 0.630859,-0.88065 0.796092,-1.06029 0.977008,-1.06216 0.179741,-0.002 0.250659,0.0706 0.406363,0.41511 0.103742,0.22955 0.222262,0.52482 0.263378,0.65617 0.04112,0.13134 0.17533,0.5055 0.298253,0.83147 0.122923,0.32597 0.255108,0.72602 0.293745,0.889 0.03864,0.16298 0.110615,0.41063 0.159954,0.55033 0.171465,0.4855 0.334129,1.10291 0.390365,1.48167 0.03111,0.20955 0.108009,0.6477 0.170883,0.97367 0.06287,0.32596 0.138228,1.01176 0.167454,1.524 0.02923,0.51223 0.0727,1.19776 0.09661,1.52339 0.116355,1.58485 -0.372766,5.30824 -0.889854,6.77394 -0.04929,0.1397 -0.226664,0.6731 -0.394175,1.18533 -0.167511,0.51224 -0.384832,1.10279 -0.482936,1.31234 -0.418703,0.89435 -0.805028,1.66955 -0.929296,1.86473 -0.0734,0.11528 -0.204084,0.34295 -0.290408,0.50593 -0.157171,0.29675 -0.786996,1.27503 -0.872146,1.35467 -0.02489,0.0233 -0.177438,0.23283 -0.338988,0.46567 -2.667884,3.84507 -7.124069,7.03487 -11.644272,8.33513 -0.372534,0.10717 -0.846046,0.24727 -1.05225,0.31136 -0.206203,0.0641 -0.472903,0.11696 -0.592666,0.11751 -0.119763,5.6e-4 -0.4273012,0.0581 -0.6834179,0.12787 -0.5056232,0.13774 -2.1065049,0.28437 -3.6210469,0.33165 -1.2676252,0.0396 -1.309971,0.008 -1.3716798,-1.02243 l -0.04494,-0.75043 -0.7972578,-0.0245 c -0.5807428,-0.0179 -0.8160721,0.005 -0.8665368,0.0847 -0.038104,0.0601 -0.069863,0.51287 -0.070576,1.00624 -0.00175,1.20772 0.036962,1.17729 -1.4976743,1.17729 -1.07482743,0 -1.20100153,-0.0158 -1.33828583,-0.16749 l -3.97e-5,-8e-5 c -0.1384188,-0.15295 -0.1467011,-0.29809 -0.095423,-1.67216 0.030883,-0.82758 0.064612,-1.63803 0.074953,-1.80102 l 0.018801,-0.29633 -1.16717807,-0.0236 -1.1671781,-0.0236 -0.090051,-0.23042 c -0.051802,-0.13256 -0.072957,-0.54618 -0.049807,-0.97381 0.052974,-0.97852 0.034837,-0.99229 -1.3072954,-0.99229 -0.6356017,0 -1.013036,0.0338 -1.0502413,0.094 -0.031942,0.0517 -0.066132,0.43822 -0.075977,0.85897 -0.023338,0.9974 -0.019219,0.9944 -1.3647305,0.9944 -0.8639412,0 -1.0415072,-0.0219 -1.0844843,-0.13393 -0.028265,-0.0737 -0.051392,-0.54262 -0.051392,-1.04215 0,-1.23169 -0.00557,-1.22549 1.1482255,-1.27926 0.7394313,-0.0344 0.9255765,-0.0696 1.0005097,-0.18891 0.070349,-0.112 0.060425,-0.17821 -0.042075,-0.28071 -0.1154366,-0.11544 -0.4488722,-0.13482 -2.3918529,-0.13903 -1.5763395,-0.003 -2.2764416,-0.0337 -2.3197616,-0.10028 -0.03413,-0.0525 -0.06205,-0.6288 -0.06205,-1.28073 v -1.18534 l -0.695004,-0.0245 c -0.634453,-0.0224 -0.710191,-0.0438 -0.869328,-0.24615 -0.153377,-0.19499 -0.168145,-0.2975 -0.1229,-0.85303 0.02829,-0.34728 0.02723,-0.76039 -0.0023,-0.91802 -0.05322,-0.28371 -0.05838,-0.2866 -0.51139,-0.2866 -0.589172,0 -0.635421,-0.0835 -0.57373,-1.0357 l 0.04809,-0.7423 h -1.252031 c -1.09312,0 -1.266308,-0.0188 -1.364507,-0.14817 -0.07952,-0.10475 -0.113263,-0.46444 -0.115167,-1.22766 -0.0036,-1.44268 -0.02775,-1.41771 1.373141,-1.41947 0.570441,-7.1e-4 1.091804,-0.0359 1.158582,-0.0781 0.08942,-0.0566 0.130991,-0.32196 0.157746,-1.00694 l 0.03633,-0.93011 -0.581079,-0.0544 c -0.822084,-0.077 -0.944644,-0.11145 -0.99834,-0.28064 -0.0793,-0.24986 0.08514,-1.94832 0.202306,-2.0895 0.08201,-0.0988 0.280217,-0.13096 0.807406,-0.13096 m 8.7339689,19.91111 c -0.1132099,-0.1251 -0.1401223,-0.34101 -0.1401223,-1.12416 0,-1.37564 -0.026269,-1.34957 1.3340283,-1.32371 1.2682979,0.0241 1.1843215,-0.0708 1.1975321,1.35387 0.011478,1.23785 1.334e-4,1.24883 -1.2907715,1.24883 -0.8230338,0 -0.9806041,-0.0222 -1.1006666,-0.15483 z m -5.7795139,-12.93309 c 0.02827,-0.0737 0.05139,-0.56896 0.05139,-1.10067 v -0.96674 h -1.143 -1.143 v 1.10066 1.10067 h 1.091608 c 0.9173,0 1.099815,-0.0214 1.143,-0.13392 z m -7.125238,3.79575 c -0.114527,-0.28607 -0.07114,-2.10076 0.05383,-2.25159 0.09579,-0.1156 0.286405,-0.14024 1.085066,-0.14024 0.532877,0 1.042561,0.0394 1.132633,0.0876 0.148782,0.0796 0.163768,0.18654 0.163768,1.1684 0,0.72769 -0.03319,1.11394 -0.1016,1.18235 -0.06846,0.0685 -0.455909,0.1016 -1.187991,0.1016 -0.955617,0 -1.093531,-0.0178 -1.145706,-0.14817 z m -3.273683,-3.51996 c -0.141789,-0.10368 -0.164788,-0.24198 -0.180076,-1.08286 -0.02485,-1.367 -0.04494,-1.34501 1.228293,-1.34501 1.311293,0 1.274096,-0.0369 1.274096,1.26568 0,0.7657 -0.02847,1.02321 -0.12165,1.10055 -0.1918,0.15918 -1.99808,0.20977 -2.200663,0.0616 z" /></g></g><g
         id="g124"><path
           id="path78"
           style="fill:#6fbc3c;fill-opacity:1"
           d="m 157.36438,92.686153 c -2.63611,-0.70529 -4.19001,-2.14245 -4.91291,-4.54382 -0.26698,-0.88689 -0.36449,-2.31141 -0.21726,-3.1741 0.23056,-1.351 0.996,-2.81618 1.96509,-3.7615 0.47962,-0.46786 1.72022,-1.2737 1.96087,-1.2737 0.0616,0 0.15172,-0.0397 0.20025,-0.0883 0.0485,-0.0485 0.46573,-0.18528 0.9271,-0.30388 0.71156,-0.18291 0.96735,-0.20949 1.68553,-0.17518 1.08661,0.0519 1.73854,0.22451 2.82028,0.74663 0.69959,0.33767 1.00589,0.54836 1.54234,1.06088 0.65569,0.62644 1.43704,1.75483 1.43704,2.07529 0,0.0802 0.0344,0.16709 0.0764,0.19305 0.13787,0.0852 0.43133,1.20631 0.50436,1.92677 0.0924,0.91179 -0.007,2.17527 -0.22136,2.81969 -0.21222,0.63729 -0.71677,1.67599 -0.98247,2.02256 -0.87885,1.14636 -2.10028,1.96446 -3.49459,2.34065 -0.84872,0.22899 -2.66128,0.3033 -3.29065,0.13491 z m 2.24367,-2.54498 c 0.72608,-0.17955 1.21981,-0.43808 1.73388,-0.90791 0.55817,-0.51014 0.81635,-0.92373 1.10334,-1.76752 0.39025,-1.14738 0.25392,-2.49932 -0.36259,-3.59571 -0.3547,-0.63081 -0.62042,-0.92006 -1.1623,-1.26525 -0.74513,-0.47466 -1.17248,-0.59169 -2.159,-0.59126 -1.18841,5.2e-4 -1.83545,0.25187 -2.58613,1.00463 -0.85563,0.85799 -1.26149,1.84072 -1.26093,3.05321 3.5e-4,0.78139 0.15351,1.37505 0.5679,2.20133 0.18437,0.36762 1.26421,1.48134 1.4371,1.48219 0.0585,2.9e-4 0.22069,0.0609 0.36039,0.13477 0.27583,0.14579 1.2009,0.35381 1.60867,0.36174 0.1397,0.003 0.46355,-0.0469 0.71967,-0.11022 z m -11.17372,2.47548 c -0.14553,-0.0535 -0.60004,-0.6937 -1.1005,-1.5502 -0.10883,-0.18626 -0.31584,-0.52952 -0.46,-0.76278 -0.14417,-0.23327 -0.30893,-0.49997 -0.36614,-0.59267 -0.0572,-0.0927 -0.23633,-0.3975 -0.39806,-0.67734 -0.50491,-0.87367 -0.52845,-0.88821 -1.43818,-0.88821 -0.5604,0 -0.81829,0.0333 -0.88551,0.11428 -0.0639,0.0769 -0.096,0.76616 -0.0985,2.10919 -0.003,1.66614 -0.0246,2.01228 -0.13058,2.10024 -0.15495,0.12859 -2.31045,0.17612 -2.46963,0.0545 -0.083,-0.0634 -0.10583,-1.44633 -0.10583,-6.41016 0,-5.61805 0.0148,-6.34152 0.13145,-6.43836 0.1029,-0.0854 0.79737,-0.10494 3.19617,-0.09 3.22049,0.0201 3.19279,0.0181 3.99605,0.28052 1.35277,0.44188 2.07683,1.15934 2.54567,2.52249 0.22974,0.66795 0.22874,2.29788 -0.002,3.00567 -0.2902,0.89078 -0.96404,1.70125 -1.79286,2.15637 -0.25585,0.14049 -0.42214,0.29304 -0.43821,0.40199 -0.0251,0.16993 0.33312,0.76381 1.99695,3.31103 0.38681,0.59218 0.69043,1.14524 0.67733,1.23382 -0.0221,0.14942 -0.11651,0.16116 -1.36116,0.16934 -0.7356,0.005 -1.40907,-0.0175 -1.49661,-0.0497 z m -1.43445,-7.00899 c 0.35734,-0.10255 0.8976,-0.60836 1.06207,-0.99432 0.1381,-0.32409 0.15231,-1.10213 0.0262,-1.43654 -0.11494,-0.30485 -0.54542,-0.75221 -0.83143,-0.86403 -0.47314,-0.18497 -1.21158,-0.25026 -2.28875,-0.20236 -0.80079,0.0356 -1.15641,0.0842 -1.24201,0.16986 -0.19016,0.19015 -0.17259,3.04302 0.0204,3.31861 l 0.14039,0.20043 1.40478,-0.0523 c 0.77263,-0.0288 1.54136,-0.0915 1.70828,-0.13938 z m -17.19137,6.90973 c -0.0591,-0.0591 -0.0878,-2.17095 -0.0878,-6.45284 0,-5.6301 0.0151,-6.37753 0.13049,-6.47332 0.10354,-0.0859 0.74103,-0.0961 3.08734,-0.049 3.26646,0.0655 3.36261,0.0793 4.49325,0.64781 1.548,0.77832 2.28693,2.39688 2.04309,4.47521 -0.10869,0.92631 -0.25834,1.3784 -0.6473,1.95536 -0.93912,1.39307 -2.33743,1.94821 -4.90722,1.94821 -1.06827,0 -1.31958,0.0233 -1.40861,0.13056 -0.0843,0.10155 -0.0966,0.52322 -0.0554,1.89685 0.047,1.56713 0.0375,1.77913 -0.0843,1.88027 -0.17091,0.14187 -2.42659,0.17787 -2.56355,0.0409 z m 5.71249,-6.60301 c 0.46184,-0.21507 0.92731,-0.6868 1.11064,-1.12555 0.15038,-0.35992 0.14957,-1.22885 -0.001,-1.57793 -0.19284,-0.44566 -0.66785,-0.85732 -1.17298,-1.01655 -0.638,-0.20111 -2.69639,-0.20954 -2.89408,-0.0119 -0.11259,0.1126 -0.13304,0.40933 -0.13304,1.9304 0,1.28505 0.0289,1.82631 0.1016,1.89895 0.0698,0.0698 0.48725,0.10134 1.3335,0.10078 1.11167,-7.5e-4 1.27327,-0.0201 1.65585,-0.19825 z" /><path
           id="path75"
           style="fill:#243a74;fill-opacity:1"
           d="m 116.17405,92.891813 c -0.11642,-0.0399 -0.34216,-0.0764 -0.50164,-0.081 -0.31929,-0.009 -1.27436,-0.32053 -1.86903,-0.60908 -0.97903,-0.47504 -1.83058,-1.23626 -2.48371,-2.22025 -0.65306,-0.98387 -1.15429,-2.68276 -1.15609,-3.91842 -10e-4,-0.85582 0.42164,-2.68442 0.68239,-2.95079 0.0433,-0.0442 0.0787,-0.13282 0.0787,-0.19684 0,-0.20527 0.72336,-1.23082 1.23045,-1.74449 0.43175,-0.43734 1.52863,-1.2379 1.6961,-1.2379 0.0333,0 0.21714,-0.0737 0.40851,-0.16368 0.81823,-0.3849 1.30896,-0.47132 2.67628,-0.47132 1.48531,0 1.977,0.0999 3.04589,0.61882 2.3938,1.16214 3.81211,3.48587 3.81211,6.24567 0,1.33391 -0.20216,2.06708 -0.95536,3.46484 -0.61178,1.13532 -2.14107,2.45614 -3.37849,2.91793 -0.8015,0.29911 -2.80747,0.51064 -3.28615,0.34652 z m 1.96562,-3.00151 c 0.92313,-0.39197 1.10854,-0.51166 1.54546,-0.99762 0.89573,-0.99627 1.21707,-2.40304 0.89488,-3.91762 -0.44035,-2.07001 -2.45243,-3.25925 -4.58822,-2.71188 -1.03341,0.26486 -1.81771,0.9218 -2.32435,1.9469 -0.24949,0.50482 -0.30395,0.7195 -0.3456,1.36236 -0.0618,0.95361 0.0696,1.74038 0.41144,2.46388 0.35463,0.7506 0.84382,1.23633 1.64822,1.63659 0.64794,0.3224 0.68955,0.33122 1.57284,0.33331 0.59104,10e-4 1.00421,-0.039 1.18533,-0.11592 z m -56.965931,2.91787 c -1.115166,-0.17809 -1.968054,-0.59569 -2.766892,-1.35476 -0.482392,-0.45837 -0.675895,-0.71966 -0.922303,-1.24539 -0.646912,-1.38025 -0.616853,-1.0968 -0.640711,-6.04166 -0.0167,-3.46046 0.0021,-4.47503 0.08467,-4.58057 0.08482,-0.10836 0.346791,-0.14532 1.305129,-0.18414 1.130157,-0.0458 1.207941,-0.0387 1.354541,0.12316 0.145106,0.16021 0.158752,0.45349 0.203569,4.37514 0.0307,2.68629 0.08118,4.29509 0.139858,4.45741 0.270846,0.74922 0.601677,1.10866 1.336105,1.45164 0.614199,0.28684 1.588963,0.28106 2.21079,-0.0131 0.516134,-0.24417 0.997906,-0.77281 1.250318,-1.37195 0.161913,-0.38433 0.172174,-0.61936 0.198817,-4.55391 0.02764,-4.08143 0.03095,-4.15107 0.204297,-4.29684 0.149089,-0.12536 0.355147,-0.14816 1.339036,-0.14816 1.019006,0 1.180162,0.0191 1.302953,0.15483 0.126465,0.13974 0.139928,0.56266 0.13813,4.33917 -0.0018,3.87192 -0.01422,4.22858 -0.165694,4.777 -0.349257,1.26445 -0.586157,1.72695 -1.296382,2.53091 -0.992655,1.12366 -2.042331,1.57323 -3.785265,1.6212 -0.582083,0.016 -1.25302,-0.002 -1.49097,-0.04 z m -18.34908,-0.24403 c -0.07771,-0.0859 -0.141283,-0.20462 -0.141283,-0.26391 0,-0.0593 0.204675,-0.57064 0.454833,-1.13633 0.250158,-0.5657 0.557929,-1.29524 0.683935,-1.62121 0.126007,-0.32596 0.280136,-0.70696 0.34251,-0.84666 0.234637,-0.52553 0.622296,-1.45977 0.843168,-2.032 0.125817,-0.32597 0.279014,-0.70697 0.340436,-0.84667 0.06142,-0.1397 0.195726,-0.46355 0.298451,-0.71967 0.102725,-0.25611 0.237728,-0.57996 0.300007,-0.71966 0.06228,-0.1397 0.188243,-0.4445 0.279923,-0.67734 0.09168,-0.23283 0.308956,-0.78528 0.482837,-1.22766 0.173881,-0.44239 0.386891,-0.96417 0.473356,-1.15952 0.08647,-0.19536 0.157211,-0.41218 0.157211,-0.48184 0,-0.0697 0.03257,-0.14678 0.07237,-0.17138 0.03981,-0.0246 0.155797,-0.27352 0.257758,-0.55316 0.266901,-0.732 0.343187,-0.76677 1.682417,-0.76677 1.082774,0 1.135803,0.008 1.316913,0.20362 0.10379,0.11199 0.278346,0.42632 0.387903,0.6985 0.180616,0.44873 0.311872,0.75531 0.646832,1.51088 0.06193,0.1397 0.252317,0.5969 0.423078,1.016 0.17076,0.4191 0.436546,1.0668 0.590634,1.43933 0.154088,0.37254 0.437456,1.05834 0.629707,1.524 0.414573,1.00417 0.522471,1.25696 0.704723,1.651 0.147127,0.31811 0.211431,0.47311 0.79032,1.905 0.431895,1.06831 0.398773,0.9915 0.924777,2.14456 0.341093,0.74771 0.385412,0.90427 0.305575,1.0795 l -0.09338,0.20494 h -1.428023 c -1.253019,0 -1.444292,-0.0182 -1.560752,-0.14816 -0.168417,-0.18801 -0.534421,-1.01496 -0.614195,-1.38771 -0.03348,-0.15645 -0.09085,-0.32256 -0.127489,-0.36913 -0.03664,-0.0466 -0.109287,-0.24429 -0.161445,-0.43939 -0.06081,-0.22744 -0.1554,-0.37395 -0.263626,-0.4083 -0.09284,-0.0295 -1.244497,-0.0582 -2.559248,-0.0639 l -2.390457,-0.0103 -0.189137,0.33392 c -0.104025,0.18365 -0.189763,0.39733 -0.190529,0.47485 -0.0025,0.25106 -0.524088,1.5177 -0.717671,1.74276 -0.184821,0.21487 -0.211008,0.2192 -1.499631,0.24828 -1.189112,0.0268 -1.324712,0.015 -1.452808,-0.12653 z m 7.789901,-5.65428 c 0.02853,-0.0744 -0.02593,-0.33152 -0.12102,-0.5715 -0.09509,-0.23998 -0.312721,-0.79828 -0.483627,-1.24067 -0.464122,-1.20136 -0.547291,-1.37074 -0.655366,-1.33472 -0.0543,0.0181 -0.207758,0.29724 -0.341029,0.62032 -0.13327,0.32307 -0.276491,0.6636 -0.318269,0.75674 -0.04178,0.0931 -0.154751,0.35983 -0.251049,0.59266 -0.0963,0.23284 -0.23173,0.5312 -0.300957,0.66303 -0.153638,0.29258 -0.161859,0.53601 -0.02003,0.59323 0.05821,0.0235 0.630904,0.0457 1.272657,0.0494 0.994443,0.006 1.174487,-0.0133 1.218694,-0.12848 z m 19.46453,5.67479 c -0.115518,-0.11552 -0.134858,-0.53662 -0.146786,-3.19617 -0.0076,-1.68472 -0.0048,-4.56807 0.0061,-6.40745 0.0197,-3.31802 0.0213,-3.34559 0.204239,-3.50417 0.174883,-0.15159 0.315281,-0.15718 2.724385,-0.1084 1.397,0.0283 2.78765,0.0928 3.090334,0.14343 2.410233,0.40292 4.143485,1.64029 5.096606,3.63847 1.119179,2.34632 0.8098,5.07155 -0.801492,7.06008 -0.48083,0.5934 -1.322647,1.30844 -1.90867,1.62121 -1.333304,0.71162 -2.449231,0.88488 -5.703563,0.88554 -2.094939,4.4e-4 -2.446376,-0.0177 -2.561167,-0.13254 z m 6.253068,-3.01991 c 1.200327,-0.5071 1.803675,-1.1833 2.172459,-2.43478 0.204751,-0.69482 0.206162,-1.41304 0.0042,-2.11939 -0.33875,-1.18454 -0.858271,-1.84043 -1.849923,-2.33548 l -0.659148,-0.32906 h -1.566333 -1.566334 l -0.01267,3.62064 c -0.01265,3.61404 -0.01234,3.62089 0.169333,3.75368 0.286815,0.20962 2.714165,0.0954 3.308458,-0.15561 z m 7.039599,3.01991 c -0.07318,-0.0732 -0.133007,-0.17795 -0.132958,-0.23284 5e-5,-0.0549 -0.0026,-2.93678 -0.006,-6.40422 -0.0057,-5.92646 0.0029,-6.31097 0.143092,-6.4135 0.258317,-0.18888 2.331611,-0.16774 2.635623,0.0269 l 0.1905,0.12195 v 6.38433 c 0,5.69106 -0.01445,6.39879 -0.133047,6.51739 -0.195896,0.19589 -2.501342,0.19589 -2.697238,0 z m 8.098458,10e-4 -0.188173,-0.1318 v -5.03552 c 0,-3.95275 -0.02276,-5.04328 -0.105833,-5.07158 -0.05821,-0.0198 -0.903637,-0.0529 -1.878731,-0.0735 -1.580527,-0.0334 -1.784936,-0.0539 -1.883834,-0.18914 -0.07816,-0.10689 -0.110935,-0.48078 -0.110935,-1.26541 0,-0.97516 0.01944,-1.13129 0.156277,-1.25513 0.143324,-0.1297 0.583681,-0.13848 5.312834,-0.10586 2.836105,0.0196 5.251806,0.0417 5.368222,0.0492 0.116417,0.007 0.825873,-0.0125 1.576568,-0.0444 1.68045,-0.0715 1.85403,-0.0283 2.14715,0.53342 0.11552,0.2214 0.4108,0.75986 0.65616,1.19657 0.24537,0.43672 0.44612,0.80884 0.44612,0.82695 0,0.0181 0.16701,0.30849 0.37113,0.64531 0.20412,0.33681 0.49569,0.85052 0.64794,1.14156 0.15224,0.29104 0.32411,0.52916 0.38194,0.52916 0.0952,0 0.57619,-0.79174 1.3116,-2.159 0.15028,-0.2794 0.34061,-0.6223 0.42295,-0.762 0.0823,-0.1397 0.23503,-0.4064 0.3393,-0.59266 0.65333,-1.16709 0.67774,-1.20228 0.90606,-1.30631 0.11482,-0.0523 0.76803,-0.0907 1.54369,-0.0907 1.12157,0 1.36718,0.0225 1.48056,0.13592 0.15535,0.15536 0.10787,0.40779 -0.12574,0.66841 -0.0835,0.0931 -0.61698,0.96943 -1.18556,1.94733 -0.56857,0.9779 -1.15312,1.96886 -1.29899,2.20212 -0.45114,0.72145 -1.21777,1.99637 -1.59386,2.65062 l -0.22798,0.3966 -0.005,2.4765 c -0.005,2.36014 -0.0128,2.48445 -0.17418,2.64583 -0.15371,0.1537 -0.28223,0.16933 -1.3922,0.16933 -1.1677,0 -1.22882,-0.008 -1.35467,-0.18817 -0.11162,-0.15936 -0.1318,-0.54878 -0.1318,-2.54362 v -2.35546 l -0.29775,-0.55145 c -0.31301,-0.57972 -0.81019,-1.42149 -2.12034,-3.58996 -0.43609,-0.72179 -0.932795,-1.55999 -1.103783,-1.86267 -0.170989,-0.30268 -0.458168,-0.76594 -0.638175,-1.02946 -0.180007,-0.26352 -0.327286,-0.52387 -0.327286,-0.57855 0,-0.0547 -0.04762,-0.0837 -0.105833,-0.0644 -0.07367,0.0244 -0.118696,0.34692 -0.148167,1.06152 -0.02797,0.67826 -0.0796,1.06374 -0.152186,1.13622 -0.08013,0.08 -0.595518,0.12115 -1.905,0.15203 l -1.795147,0.0423 -0.01795,5.02745 c -0.01639,4.58925 -0.03045,5.04125 -0.161289,5.18583 -0.126669,0.13997 -0.277441,0.15838 -1.296707,0.15838 -0.906862,0 -1.19359,-0.0282 -1.341544,-0.1318 z" /></g><g
         id="g147"><path
           style="font-weight:bold;font-size:5.37649px;line-height:1.25;font-family:Arial;-inkscape-font-specification:'Arial Bold';word-spacing:0px;fill:#818181;stroke-width:0.252023"
           d="m 43.047253,101.62873 v -4.010675 h 0.745669 v 4.010675 z m 3.884532,0 h -0.707881 v -1.4828 q 0,-0.470557 -0.04534,-0.607347 -0.04534,-0.139525 -0.14863,-0.216128 -0.100765,-0.07661 -0.244357,-0.07661 -0.183899,0 -0.330009,0.109432 -0.146111,0.109431 -0.201533,0.289994 -0.0529,0.180562 -0.0529,0.667529 v 1.31593 h -0.707881 v -2.905423 h 0.657499 v 0.426785 q 0.350162,-0.492443 0.881702,-0.492443 0.234282,0 0.428256,0.09302 0.193974,0.09028 0.292222,0.232542 0.100766,0.142262 0.138553,0.322824 0.0403,0.180562 0.0403,0.517066 z m 3.151459,0 h -0.707882 v -1.4828 q 0,-0.470557 -0.04534,-0.607347 -0.04534,-0.139525 -0.148631,-0.216128 -0.100766,-0.07661 -0.244358,-0.07661 -0.183897,0 -0.330008,0.109432 -0.146111,0.109431 -0.201532,0.289994 -0.0529,0.180562 -0.0529,0.667529 v 1.31593 h -0.707882 v -2.905423 h 0.657499 v 0.426785 q 0.350162,-0.492443 0.881704,-0.492443 0.23428,0 0.428255,0.09302 0.193975,0.09028 0.292222,0.232542 0.100766,0.142262 0.138553,0.322824 0.0403,0.180562 0.0403,0.517066 z m 0.554213,-1.49374 q 0,-0.383016 0.173821,-0.741404 0.173822,-0.358389 0.491235,-0.547159 0.319932,-0.18877 0.71292,-0.18877 0.607115,0 0.995065,0.429519 0.387949,0.426785 0.387949,1.080644 0,0.65932 -0.392987,1.09431 -0.390468,0.43226 -0.984989,0.43226 -0.367796,0 -0.702843,-0.18056 -0.332528,-0.18057 -0.50635,-0.52801 -0.173821,-0.35018 -0.173821,-0.85083 z m 0.725516,0.041 q 0,0.43226 0.188936,0.66207 0.188937,0.2298 0.466043,0.2298 0.277107,0 0.463524,-0.2298 0.188937,-0.22981 0.188937,-0.66754 0,-0.426781 -0.188937,-0.656588 -0.186417,-0.229808 -0.463524,-0.229808 -0.277106,0 -0.466043,0.229808 -0.188936,0.229807 -0.188936,0.662058 z m 3.325281,1.45271 -1.078197,-2.905413 h 0.743149 l 0.503831,1.482803 0.146111,0.49518 q 0.05794,-0.18877 0.07305,-0.24896 0.03527,-0.12311 0.07558,-0.24622 l 0.50887,-1.482803 h 0.728034 L 55.3256,101.62873 Z m 2.662743,-2.019015 -0.642384,-0.125847 q 0.108324,-0.421312 0.372835,-0.623762 0.264511,-0.202448 0.785975,-0.202448 0.473601,0 0.705363,0.12311 0.231762,0.120376 0.32497,0.309146 0.09573,0.186034 0.09573,0.686684 l -0.0076,0.897342 q 0,0.38301 0.03275,0.56631 0.03526,0.18056 0.128476,0.38848 h -0.700324 q -0.02771,-0.0766 -0.06802,-0.22707 -0.01764,-0.0684 -0.02519,-0.0903 -0.181379,0.19151 -0.387949,0.28726 -0.20657,0.0957 -0.440851,0.0957 -0.413142,0 -0.652461,-0.24349 -0.2368,-0.24348 -0.2368,-0.61555 0,-0.24622 0.108323,-0.43773 0.108324,-0.19424 0.302298,-0.29546 0.196494,-0.103964 0.564291,-0.180565 0.496272,-0.101221 0.687728,-0.188769 v -0.07661 q 0,-0.221599 -0.100766,-0.314616 -0.100766,-0.09575 -0.380392,-0.09575 -0.188937,0 -0.294741,0.08208 -0.105805,0.07934 -0.171302,0.281787 z m 0.947201,0.623765 q -0.136034,0.0492 -0.430775,0.11763 -0.294741,0.0684 -0.38543,0.13406 -0.138554,0.10669 -0.138554,0.27084 0,0.16141 0.110843,0.27905 0.110844,0.11764 0.282146,0.11764 0.191455,0 0.365276,-0.13679 0.128477,-0.10396 0.168784,-0.25443 0.02771,-0.0985 0.02771,-0.3748 z m 2.070743,1.39525 H 59.66106 v -2.905413 h 0.657498 v 0.413106 q 0.168783,-0.292731 0.302298,-0.385748 0.136035,-0.09302 0.307337,-0.09302 0.241838,0 0.466043,0.144997 l -0.219167,0.67027 q -0.17886,-0.125847 -0.332527,-0.125847 -0.14863,0 -0.251916,0.09028 -0.103285,0.08755 -0.163745,0.320088 -0.05794,0.232542 -0.05794,0.973937 z m 2.743356,-2.905413 h 0.660018 v 0.426784 q 0.128476,-0.218863 0.347643,-0.355653 0.219166,-0.13679 0.486196,-0.13679 0.466044,0 0.791013,0.39669 0.324971,0.39669 0.324971,1.105262 0,0.72772 -0.327489,1.13262 -0.32749,0.40216 -0.793533,0.40216 -0.221685,0 -0.403065,-0.0957 -0.17886,-0.0958 -0.377872,-0.3283 v 1.46365 h -0.707882 z m 0.700325,1.403463 q 0,0.48971 0.178859,0.72499 0.17886,0.23254 0.435813,0.23254 0.246878,0 0.410622,-0.21339 0.163745,-0.21613 0.163745,-0.70584 0,-0.456876 -0.168783,-0.678476 -0.168783,-0.221599 -0.418179,-0.221599 -0.259473,0 -0.430775,0.218863 -0.171302,0.216128 -0.171302,0.642912 z m 3.000308,-0.517065 -0.642383,-0.125847 q 0.108324,-0.421312 0.372835,-0.623762 0.26451,-0.202448 0.785975,-0.202448 0.473601,0 0.705363,0.12311 0.231762,0.120376 0.32497,0.309146 0.09573,0.186034 0.09573,0.686684 l -0.0076,0.897342 q 0,0.38301 0.03275,0.56631 0.03527,0.18056 0.128477,0.38848 h -0.700324 q -0.02771,-0.0766 -0.06802,-0.22707 -0.01764,-0.0684 -0.02519,-0.0903 -0.181379,0.19151 -0.387949,0.28726 -0.206571,0.0957 -0.440852,0.0957 -0.413141,0 -0.65246,-0.24349 -0.236801,-0.24348 -0.236801,-0.61555 0,-0.24622 0.108324,-0.43773 0.108323,-0.19424 0.302298,-0.29546 0.196494,-0.103964 0.56429,-0.180565 0.496273,-0.101221 0.687728,-0.188769 v -0.07661 q 0,-0.221599 -0.100765,-0.314616 -0.100767,-0.09575 -0.380392,-0.09575 -0.188937,0 -0.294741,0.08208 -0.105804,0.07934 -0.171303,0.281787 z m 0.947201,0.623765 q -0.136033,0.0492 -0.430774,0.11763 -0.29474,0.0684 -0.38543,0.13406 -0.138553,0.10669 -0.138553,0.27084 0,0.16141 0.110842,0.27905 0.110843,0.11764 0.282145,0.11764 0.191455,0 0.365277,-0.13679 0.128477,-0.10396 0.168783,-0.25443 0.02771,-0.0985 0.02771,-0.3748 z m 2.070744,1.39525 h -0.707881 v -2.905413 h 0.657498 v 0.413106 q 0.168783,-0.292731 0.302299,-0.385748 0.136034,-0.09302 0.307336,-0.09302 0.241839,0 0.466044,0.144997 l -0.219167,0.67027 q -0.178859,-0.125847 -0.332528,-0.125847 -0.14863,0 -0.251915,0.09028 -0.103286,0.08755 -0.163745,0.320088 -0.05794,0.232542 -0.05794,0.973937 z m 1.859135,-2.019015 -0.642384,-0.125847 q 0.108323,-0.421312 0.372834,-0.623762 0.264511,-0.202448 0.785976,-0.202448 0.4736,0 0.705362,0.12311 0.231762,0.120376 0.324971,0.309146 0.09573,0.186034 0.09573,0.686684 l -0.0076,0.897342 q 0,0.38301 0.03275,0.56631 0.03526,0.18056 0.128476,0.38848 h -0.700323 q -0.02771,-0.0766 -0.06802,-0.22707 -0.01764,-0.0684 -0.02519,-0.0903 -0.181379,0.19151 -0.38795,0.28726 -0.206571,0.0957 -0.440852,0.0957 -0.41314,0 -0.65246,-0.24349 -0.2368,-0.24348 -0.2368,-0.61555 0,-0.24622 0.108324,-0.43773 0.108323,-0.19424 0.302298,-0.29546 0.196493,-0.103964 0.564289,-0.180565 0.496273,-0.101221 0.68773,-0.188769 v -0.07661 q 0,-0.221599 -0.100767,-0.314616 -0.100765,-0.09575 -0.380392,-0.09575 -0.188936,0 -0.29474,0.08208 -0.105805,0.07934 -0.171303,0.281787 z m 0.947201,0.623765 q -0.136034,0.0492 -0.430775,0.11763 -0.294741,0.0684 -0.385431,0.13406 -0.138553,0.10669 -0.138553,0.27084 0,0.16141 0.110842,0.27905 0.110843,0.11764 0.282145,0.11764 0.191456,0 0.365278,-0.13679 0.128476,-0.10396 0.168783,-0.25443 0.02771,-0.0985 0.02771,-0.3748 z m 3.355508,-0.623765 -0.642383,-0.125847 q 0.108324,-0.421312 0.372835,-0.623762 0.264511,-0.202448 0.785974,-0.202448 0.473601,0 0.705363,0.12311 0.231762,0.120376 0.324971,0.309146 0.09573,0.186034 0.09573,0.686684 l -0.0076,0.897342 q 0,0.38301 0.03275,0.56631 0.03527,0.18056 0.128477,0.38848 h -0.700325 q -0.02771,-0.0766 -0.06801,-0.22707 -0.01764,-0.0684 -0.02519,-0.0903 -0.181379,0.19151 -0.387949,0.28726 -0.206571,0.0957 -0.440852,0.0957 -0.413141,0 -0.65246,-0.24349 -0.236801,-0.24348 -0.236801,-0.61555 0,-0.24622 0.108324,-0.43773 0.108323,-0.19424 0.302298,-0.29546 0.196494,-0.103964 0.56429,-0.180565 0.496273,-0.101221 0.687728,-0.188769 v -0.07661 q 0,-0.221599 -0.100765,-0.314616 -0.100767,-0.09575 -0.380392,-0.09575 -0.188937,0 -0.294741,0.08208 -0.105804,0.07934 -0.171303,0.281787 z m 0.947201,0.623765 q -0.136034,0.0492 -0.430775,0.11763 -0.29474,0.0684 -0.385429,0.13406 -0.138553,0.10669 -0.138553,0.27084 0,0.16141 0.110842,0.27905 0.110843,0.11764 0.282145,0.11764 0.191455,0 0.365277,-0.13679 0.128477,-0.10396 0.168783,-0.25443 0.02771,-0.0985 0.02771,-0.3748 z m 1.372938,-1.510164 h 0.660018 V 99.1501 q 0.128476,-0.218863 0.347643,-0.355653 0.219165,-0.13679 0.486196,-0.13679 0.466043,0 0.791013,0.39669 0.324971,0.39669 0.324971,1.105263 0,0.72772 -0.32749,1.13262 -0.327489,0.40216 -0.793533,0.40216 -0.221685,0 -0.403064,-0.0957 -0.17886,-0.0958 -0.377873,-0.3283 v 1.46365 h -0.707881 z m 0.700323,1.403464 q 0,0.48971 0.17886,0.72498 0.17886,0.23255 0.435814,0.23255 0.246877,0 0.410622,-0.2134 0.163744,-0.21612 0.163744,-0.70583 0,-0.456878 -0.168783,-0.678477 -0.168783,-0.221599 -0.418178,-0.221599 -0.259473,0 -0.430776,0.218863 -0.171303,0.216128 -0.171303,0.642913 z m 3.148942,1.50195 h -0.707881 v -2.905414 h 0.657498 v 0.413105 q 0.168783,-0.29273 0.302298,-0.385747 0.136035,-0.09302 0.307337,-0.09302 0.241838,0 0.466042,0.144997 l -0.219165,0.67027 q -0.17886,-0.125847 -0.332528,-0.125847 -0.14863,0 -0.251916,0.09028 -0.103285,0.08755 -0.163744,0.320088 -0.05794,0.232542 -0.05794,0.973938 z m 2.87939,-0.9247 0.705362,0.12858 q -0.136033,0.42132 -0.430774,0.64292 -0.292221,0.21886 -0.733073,0.21886 -0.697805,0 -1.032852,-0.49518 -0.264511,-0.39669 -0.264511,-1.0013 0,-0.722251 0.347643,-1.129883 0.347643,-0.41037 0.879183,-0.41037 0.59704,0 0.942164,0.429519 0.345124,0.426785 0.330008,1.310444 h -1.773482 q 0.0076,0.34198 0.171302,0.53348 0.163744,0.18877 0.408103,0.18877 0.166263,0 0.279625,-0.0985 0.113362,-0.0985 0.171302,-0.31735 z m 0.0403,-0.776964 q -0.0076,-0.333767 -0.158707,-0.506123 -0.151149,-0.17509 -0.367796,-0.17509 -0.231762,0 -0.382911,0.183298 -0.151148,0.183298 -0.14863,0.497915 z m 3.713229,1.701664 H 88.08716 v -1.4828 q 0,-0.470557 -0.04534,-0.607347 -0.04535,-0.139525 -0.148631,-0.216128 -0.100766,-0.07661 -0.244358,-0.07661 -0.183897,0 -0.330008,0.109432 -0.146111,0.109431 -0.201532,0.289994 -0.0529,0.180562 -0.0529,0.667539 v 1.31592 h -0.707883 v -2.905423 h 0.657499 v 0.426785 q 0.350162,-0.492443 0.881704,-0.492443 0.234281,0 0.428255,0.09302 0.193975,0.09028 0.292222,0.232542 0.100766,0.142262 0.138553,0.322824 0.0403,0.180562 0.0403,0.517066 z m 3.171614,0 h -0.6575 v -0.42678 q -0.163744,0.24895 -0.387948,0.37206 -0.221685,0.12038 -0.44841,0.12038 -0.461005,0 -0.791013,-0.40216 -0.32749,-0.4049 -0.32749,-1.12715 0,-0.738665 0.319932,-1.121676 0.319933,-0.385747 0.808648,-0.385747 0.448409,0 0.775899,0.404897 v -1.444499 h 0.707882 z m -1.889365,-1.51563 q 0,0.46509 0.118401,0.67301 0.171302,0.30093 0.478638,0.30093 0.244358,0 0.415661,-0.22433 0.171302,-0.22707 0.171302,-0.67574 0,-0.500654 -0.166264,-0.719517 -0.166264,-0.2216 -0.425736,-0.2216 -0.251916,0 -0.423219,0.218863 -0.168783,0.216128 -0.168783,0.648384 z m 4.136446,0.59093 0.705362,0.12858 q -0.136034,0.42132 -0.430775,0.64292 -0.292222,0.21886 -0.733074,0.21886 -0.697804,0 -1.032852,-0.49518 -0.26451,-0.39669 -0.26451,-1.0013 0,-0.722251 0.347642,-1.129883 0.347643,-0.41037 0.879185,-0.41037 0.597039,0 0.942162,0.429519 0.345124,0.426785 0.33001,1.310444 h -1.773484 q 0.0076,0.34198 0.171302,0.53348 0.163746,0.18877 0.408103,0.18877 0.166264,0 0.279626,-0.0985 0.113363,-0.0985 0.171303,-0.31735 z m 0.0403,-0.776964 q -0.0076,-0.333767 -0.158706,-0.506123 -0.15115,-0.17509 -0.367796,-0.17509 -0.231762,0 -0.382912,0.183298 -0.151149,0.183298 -0.14863,0.497915 z m 1.957384,1.701664 h -0.707882 v -2.905414 h 0.657494 v 0.413105 q 0.168782,-0.29273 0.3023,-0.385747 0.136031,-0.09302 0.307337,-0.09302 0.241836,0 0.466044,0.144997 l -0.219171,0.67027 q -0.178857,-0.125847 -0.332526,-0.125847 -0.148631,0 -0.251911,0.09028 -0.103291,0.08755 -0.163745,0.320088 -0.05796,0.232542 -0.05796,0.973938 z m 1.027807,-0.76876 h 0.707889 v 0.5499 q 0,0.33376 -0.05287,0.52527 -0.05287,0.19424 -0.201532,0.34744 -0.146117,0.15321 -0.372839,0.24075 l -0.138555,-0.31735 q 0.214132,-0.0766 0.304823,-0.21065 0.09068,-0.13406 0.09577,-0.3666 H 97.2393 Z m 3.413452,-1.250257 -0.64237,-0.125846 q 0.10831,-0.421313 0.37283,-0.623762 0.26451,-0.202448 0.78598,-0.202448 0.47359,0 0.70535,0.12311 0.23177,0.120376 0.32498,0.309146 0.0958,0.186034 0.0958,0.686684 l -0.008,0.897343 q 0,0.38301 0.0327,0.56631 0.0352,0.18056 0.12848,0.38848 h -0.70033 q -0.0277,-0.0766 -0.068,-0.22707 -0.0177,-0.0684 -0.0252,-0.0903 -0.18138,0.19151 -0.38795,0.28726 -0.20657,0.0957 -0.44086,0.0957 -0.41314,0 -0.65245,-0.24349 -0.236815,-0.24348 -0.236815,-0.61555 0,-0.24622 0.108335,-0.43773 0.10833,-0.19424 0.3023,-0.29546 0.19649,-0.103965 0.56428,-0.180566 0.49628,-0.101221 0.68773,-0.18877 v -0.07661 q 0,-0.221599 -0.10076,-0.314616 -0.10077,-0.09575 -0.38039,-0.09575 -0.18894,0 -0.29474,0.08208 -0.10581,0.07934 -0.17131,0.281788 z m 0.94721,0.623767 q -0.13604,0.0492 -0.43077,0.11763 -0.29475,0.0684 -0.38543,0.13406 -0.13856,0.10669 -0.13856,0.27084 0,0.16141 0.11084,0.27905 0.11085,0.11764 0.28214,0.11764 0.19146,0 0.36528,-0.13679 0.12848,-0.10396 0.16878,-0.25443 0.0277,-0.0985 0.0277,-0.3748 z m 1.37294,-1.510164 h 0.66001 V 99.1501 q 0.12848,-0.218863 0.34765,-0.355653 0.21916,-0.13679 0.4862,-0.13679 0.46604,0 0.79101,0.39669 0.32497,0.39669 0.32497,1.105263 0,0.72772 -0.32749,1.13262 -0.32749,0.40216 -0.79353,0.40216 -0.22168,0 -0.40307,-0.0957 -0.17885,-0.0958 -0.37787,-0.3283 v 1.46365 h -0.70788 z m 0.70032,1.403464 q 0,0.48971 0.17886,0.72498 0.17886,0.23255 0.43582,0.23255 0.24687,0 0.41062,-0.2134 0.16374,-0.21612 0.16374,-0.70583 0,-0.456878 -0.16878,-0.678477 -0.16878,-0.221599 -0.41818,-0.221599 -0.25947,0 -0.43078,0.218863 -0.1713,0.216128 -0.1713,0.642913 z m 3.14894,1.50195 h -0.70788 v -2.905414 h 0.6575 v 0.413105 q 0.16878,-0.29273 0.3023,-0.385747 0.13603,-0.09302 0.30733,-0.09302 0.24184,0 0.46605,0.144997 l -0.21917,0.67027 q -0.17886,-0.125847 -0.33253,-0.125847 -0.14863,0 -0.25191,0.09028 -0.10329,0.08755 -0.16375,0.320088 -0.058,0.232542 -0.058,0.973938 z m 2.87939,-0.9247 0.70536,0.12858 q -0.13603,0.42132 -0.43078,0.64292 -0.29221,0.21886 -0.73306,0.21886 -0.69781,0 -1.03286,-0.49518 -0.26451,-0.39669 -0.26451,-1.0013 0,-0.722251 0.34764,-1.129883 0.34765,-0.41037 0.87919,-0.41037 0.59703,0 0.94216,0.429519 0.34513,0.426785 0.33001,1.310444 h -1.77348 q 0.008,0.34198 0.1713,0.53348 0.16375,0.18877 0.4081,0.18877 0.16627,0 0.27963,-0.0985 0.11336,-0.0985 0.1713,-0.31735 z m 0.0403,-0.776964 q -0.008,-0.333767 -0.15871,-0.506123 -0.15115,-0.17509 -0.3678,-0.17509 -0.23176,0 -0.3829,0.183298 -0.15116,0.183298 -0.14863,0.497915 z m 3.71323,1.701664 h -0.70788 v -1.4828 q 0,-0.470557 -0.0453,-0.607347 -0.0454,-0.139525 -0.14864,-0.216128 -0.10076,-0.07661 -0.24435,-0.07661 -0.1839,0 -0.33002,0.109432 -0.1461,0.109431 -0.20153,0.289994 -0.0529,0.180562 -0.0529,0.667529 v 1.31592 h -0.70788 v -2.905413 h 0.6575 v 0.426785 q 0.35016,-0.492443 0.8817,-0.492443 0.23428,0 0.42825,0.09302 0.19398,0.09028 0.29223,0.232542 0.10076,0.142262 0.13855,0.322824 0.0403,0.180562 0.0403,0.517066 z m 3.17161,0 h -0.6575 v -0.42678 q -0.16374,0.24895 -0.38795,0.37206 -0.22168,0.12038 -0.44841,0.12038 -0.461,0 -0.79102,-0.40216 -0.32748,-0.4049 -0.32748,-1.12715 0,-0.738665 0.31993,-1.121676 0.31993,-0.385747 0.80865,-0.385747 0.44841,0 0.77589,0.404897 v -1.444499 h 0.70789 z m -1.88936,-1.51563 q 0,0.46509 0.11839,0.67301 0.17131,0.30093 0.47865,0.30093 0.24436,0 0.41565,-0.22433 0.17131,-0.22707 0.17131,-0.67574 0,-0.500654 -0.16627,-0.719517 -0.16626,-0.2216 -0.42573,-0.2216 -0.25192,0 -0.42322,0.218863 -0.16878,0.216128 -0.16878,0.648384 z m 4.13644,0.59093 0.70536,0.12858 q -0.13603,0.42132 -0.43077,0.64292 -0.29222,0.21886 -0.73308,0.21886 -0.6978,0 -1.03284,-0.49518 -0.26451,-0.39669 -0.26451,-1.0013 0,-0.722251 0.34764,-1.129883 0.34764,-0.41037 0.87918,-0.41037 0.59704,0 0.94216,0.429519 0.34512,0.426785 0.33001,1.310444 h -1.77349 q 0.008,0.34198 0.17131,0.53348 0.16374,0.18877 0.4081,0.18877 0.16627,0 0.27963,-0.0985 0.11336,-0.0985 0.1713,-0.31735 z m 0.0403,-0.776964 q -0.008,-0.333767 -0.15871,-0.506123 -0.15115,-0.17509 -0.36779,-0.17509 -0.23177,0 -0.38292,0.183298 -0.15114,0.183298 -0.14863,0.497915 z m 1.95738,1.701664 h -0.70788 v -2.905414 h 0.6575 v 0.413105 q 0.16878,-0.29273 0.3023,-0.385747 0.13603,-0.09302 0.30733,-0.09302 0.24184,0 0.46605,0.144997 l -0.21917,0.67027 q -0.17886,-0.125847 -0.33253,-0.125847 -0.14863,0 -0.25191,0.09028 -0.10329,0.08755 -0.16374,0.320088 -0.058,0.232542 -0.058,0.973938 z m 2.74336,-2.905414 h 0.66001 V 99.1501 q 0.12848,-0.218863 0.34764,-0.355653 0.21917,-0.13679 0.48621,-0.13679 0.46603,0 0.79101,0.39669 0.32497,0.39669 0.32497,1.105263 0,0.72772 -0.32749,1.13262 -0.3275,0.40216 -0.79354,0.40216 -0.22169,0 -0.40306,-0.0957 -0.17886,-0.0958 -0.37787,-0.3283 v 1.46365 h -0.70788 z m 0.70032,1.403464 q 0,0.48971 0.17886,0.72498 0.17886,0.23255 0.43581,0.23255 0.24688,0 0.41063,-0.2134 0.16374,-0.21612 0.16374,-0.70583 0,-0.456878 -0.16878,-0.678477 -0.16878,-0.221599 -0.41818,-0.221599 -0.25947,0 -0.43078,0.218863 -0.1713,0.216128 -0.1713,0.642913 z m 3.00031,-0.517067 -0.64238,-0.125846 q 0.10832,-0.421313 0.37284,-0.623762 0.26451,-0.202448 0.78597,-0.202448 0.4736,0 0.70536,0.12311 0.23176,0.120376 0.32498,0.309146 0.0958,0.186034 0.0958,0.686684 l -0.008,0.897343 q 0,0.38301 0.0327,0.56631 0.0352,0.18056 0.12848,0.38848 h -0.70033 q -0.0277,-0.0766 -0.068,-0.22707 -0.0177,-0.0684 -0.0252,-0.0903 -0.18138,0.19151 -0.38795,0.28726 -0.20658,0.0957 -0.44086,0.0957 -0.41314,0 -0.65246,-0.24349 -0.2368,-0.24348 -0.2368,-0.61555 0,-0.24622 0.10833,-0.43773 0.10832,-0.19424 0.3023,-0.29546 0.19649,-0.103965 0.56428,-0.180566 0.49628,-0.101221 0.68772,-0.18877 v -0.07661 q 0,-0.221599 -0.10076,-0.314616 -0.10077,-0.09575 -0.38039,-0.09575 -0.18893,0 -0.29473,0.08208 -0.10582,0.07934 -0.17132,0.281788 z m 0.94721,0.623767 q -0.13604,0.0492 -0.43078,0.11763 -0.29474,0.0684 -0.38543,0.13406 -0.13856,0.10669 -0.13856,0.27084 0,0.16141 0.11085,0.27905 0.11085,0.11764 0.28214,0.11764 0.19146,0 0.36528,-0.13679 0.12848,-0.10396 0.16878,-0.25443 0.0277,-0.0985 0.0277,-0.3748 z m 2.07073,1.39525 h -0.70788 v -2.905414 h 0.6575 v 0.413105 q 0.16879,-0.29273 0.3023,-0.385747 0.13603,-0.09302 0.30734,-0.09302 0.24184,0 0.46603,0.144997 l -0.21916,0.67027 q -0.17885,-0.125847 -0.33252,-0.125847 -0.14863,0 -0.25192,0.09028 -0.10328,0.08755 -0.16375,0.320088 -0.058,0.232542 -0.058,0.973938 z m 1.85914,-2.019017 -0.64239,-0.125846 q 0.10833,-0.421313 0.37284,-0.623762 0.26451,-0.202448 0.78597,-0.202448 0.47361,0 0.70537,0.12311 0.23176,0.120376 0.32497,0.309146 0.0958,0.186034 0.0958,0.686684 l -0.008,0.897343 q 0,0.38301 0.0327,0.56631 0.0352,0.18056 0.12846,0.38848 h -0.70032 q -0.0277,-0.0766 -0.068,-0.22707 -0.0177,-0.0684 -0.0252,-0.0903 -0.18137,0.19151 -0.38794,0.28726 -0.20657,0.0957 -0.44085,0.0957 -0.41315,0 -0.65247,-0.24349 -0.2368,-0.24348 -0.2368,-0.61555 0,-0.24622 0.10833,-0.43773 0.10832,-0.19424 0.30229,-0.29546 0.1965,-0.103965 0.5643,-0.180566 0.49627,-0.101221 0.68773,-0.18877 v -0.07661 q 0,-0.221599 -0.10077,-0.314616 -0.10077,-0.09575 -0.38039,-0.09575 -0.18893,0 -0.29474,0.08208 -0.1058,0.07934 -0.1713,0.281788 z m 0.9472,0.623767 q -0.13603,0.0492 -0.43078,0.11763 -0.29474,0.0684 -0.38543,0.13406 -0.13855,0.10669 -0.13855,0.27084 0,0.16141 0.11084,0.27905 0.11084,0.11764 0.28215,0.11764 0.19145,0 0.36527,-0.13679 0.12848,-0.10396 0.16879,-0.25443 0.0277,-0.0985 0.0277,-0.3748 z"
           id="text118"
           aria-label="Innovar para aprender, aprender para" /><path
           style="font-weight:bold;font-size:5.36887px;line-height:1.25;font-family:Arial;-inkscape-font-specification:'Arial Bold';word-spacing:0px;fill:#6fbc3c;stroke-width:0.251666"
           d="m 137.51324,98.752254 v 0.612819 h -0.4823 v 1.170917 q 0,0.35566 0.0126,0.41585 0.015,0.0574 0.0628,0.0957 0.0502,0.0383 0.12058,0.0383 0.098,0 0.28385,-0.0739 l 0.0603,0.5964 q -0.24618,0.11491 -0.55767,0.11491 -0.19091,0 -0.34415,-0.0684 -0.15323,-0.0711 -0.22608,-0.18056 -0.0703,-0.11217 -0.098,-0.30094 -0.0226,-0.13405 -0.0226,-0.54169 v -1.266672 h -0.32404 v -0.612819 h 0.32404 v -0.577254 l 0.70839,-0.448671 v 1.025925 z m 1.16558,2.905416 h -0.70588 v -2.905416 h 0.65564 v 0.413106 q 0.1683,-0.29273 0.30144,-0.385748 0.13565,-0.09301 0.30646,-0.09301 0.24116,0 0.46473,0.144998 l -0.21855,0.67027 q -0.17835,-0.125847 -0.33159,-0.125847 -0.14821,0 -0.2512,0.09028 -0.10299,0.08755 -0.16328,0.320089 -0.0578,0.232538 -0.0578,0.973938 z m 1.85387,-2.019017 -0.64057,-0.125847 q 0.10802,-0.421313 0.37178,-0.623762 0.26375,-0.202449 0.78375,-0.202449 0.47225,0 0.70335,0.123111 0.23111,0.120374 0.32406,0.309145 0.0954,0.186034 0.0954,0.686685 l -0.008,0.897344 q 0,0.38301 0.0327,0.56631 0.0352,0.18056 0.12811,0.38848 h -0.69833 q -0.0276,-0.0766 -0.0678,-0.22707 -0.0175,-0.0684 -0.0251,-0.0903 -0.18087,0.19151 -0.38685,0.28726 -0.20599,0.0958 -0.43961,0.0958 -0.41197,0 -0.6506,-0.24349 -0.23613,-0.24348 -0.23613,-0.61555 0,-0.24622 0.10801,-0.43773 0.10802,-0.19424 0.30144,-0.29547 0.19594,-0.10396 0.56269,-0.180559 0.49487,-0.101229 0.68579,-0.188771 v -0.0766 q 0,-0.2216 -0.10048,-0.314617 -0.10048,-0.09575 -0.37932,-0.09575 -0.1884,0 -0.29391,0.08207 -0.1055,0.07933 -0.17081,0.281788 z m 0.94451,0.623757 q -0.13565,0.0493 -0.42955,0.11764 -0.29391,0.0684 -0.38434,0.13406 -0.13817,0.10669 -0.13817,0.27084 0,0.16141 0.11054,0.27905 0.11053,0.11764 0.28134,0.11764 0.19092,0 0.36424,-0.13679 0.12812,-0.10396 0.16831,-0.25443 0.0276,-0.0985 0.0276,-0.3748 z m 3.81575,1.39526 h -0.70588 v -1.4828 q 0,-0.470558 -0.0452,-0.607348 -0.0452,-0.139526 -0.14821,-0.216128 -0.10047,-0.0766 -0.24366,-0.0766 -0.18338,0 -0.32907,0.109432 -0.1457,0.109431 -0.20097,0.289994 -0.0528,0.180563 -0.0528,0.66753 v 1.31592 h -0.70586 v -2.905414 h 0.65562 v 0.426785 q 0.34917,-0.492444 0.87921,-0.492444 0.23361,0 0.42704,0.09301 0.19343,0.09028 0.2914,0.232543 0.10048,0.142261 0.13816,0.322824 0.0401,0.180562 0.0401,0.517066 z m 0.46723,-0.82895 0.70839,-0.11763 q 0.0452,0.22433 0.18338,0.34197 0.13816,0.1149 0.38684,0.1149 0.27382,0 0.41198,-0.10943 0.0929,-0.0766 0.0929,-0.20518 0,-0.0876 -0.0502,-0.145 -0.0527,-0.0547 -0.23612,-0.10123 -0.85408,-0.20518 -1.08268,-0.3748 -0.31651,-0.235282 -0.31651,-0.653859 0,-0.37754 0.2738,-0.634705 0.27382,-0.257166 0.84907,-0.257166 0.54762,0 0.81389,0.194242 0.26627,0.194242 0.36675,0.574518 l -0.66568,0.134054 q -0.0427,-0.16962 -0.16328,-0.259901 -0.11806,-0.09028 -0.33913,-0.09028 -0.27883,0 -0.3994,0.08481 -0.0804,0.06018 -0.0804,0.155941 0,0.08208 0.0703,0.139525 0.0954,0.0766 0.65814,0.216128 0.56521,0.139526 0.78878,0.341973 0.22105,0.20519 0.22105,0.57179 0,0.39942 -0.30646,0.68668 -0.30647,0.28726 -0.90684,0.28726 -0.5451,0 -0.86413,-0.24075 -0.31651,-0.24075 -0.41448,-0.65386 z m 2.80089,-2.076466 h 0.39188 V 98.53339 q 0,-0.366597 0.0703,-0.547159 0.0728,-0.180564 0.26377,-0.292731 0.19342,-0.114904 0.48732,-0.114904 0.30145,0 0.59033,0.09848 l -0.0954,0.536217 q -0.1683,-0.04377 -0.32404,-0.04377 -0.15324,0 -0.22107,0.07933 -0.0653,0.0766 -0.0653,0.298202 v 0.205185 h 0.52752 v 0.604611 h -0.52752 v 2.300809 h -0.70587 v -2.300809 h -0.39188 z m 1.85889,1.411676 q 0,-0.383015 0.17333,-0.741405 0.17333,-0.35839 0.48985,-0.54716 0.31902,-0.18877 0.7109,-0.18877 0.60539,0 0.99223,0.429521 0.38686,0.426784 0.38686,1.080644 0,0.65932 -0.39188,1.09432 -0.38935,0.43225 -0.98219,0.43225 -0.36675,0 -0.70086,-0.18056 -0.33158,-0.18056 -0.50491,-0.52801 -0.17333,-0.35018 -0.17333,-0.85083 z m 0.72346,0.041 q 0,0.43226 0.18841,0.66206 0.1884,0.22981 0.46472,0.22981 0.27631,0 0.46221,-0.22981 0.1884,-0.2298 0.1884,-0.66753 0,-0.426786 -0.1884,-0.656593 -0.1859,-0.229807 -0.46221,-0.229807 -0.27632,0 -0.46472,0.229807 -0.18841,0.229807 -0.18841,0.662063 z m 3.25808,1.45271 h -0.70588 v -2.905419 h 0.65564 v 0.413105 q 0.16831,-0.29273 0.30144,-0.385747 0.13565,-0.09301 0.30647,-0.09301 0.24115,0 0.46472,0.144997 l -0.21854,0.670271 q -0.17835,-0.125847 -0.33158,-0.125847 -0.14821,0 -0.25121,0.09028 -0.10299,0.08755 -0.16328,0.320089 -0.0578,0.232541 -0.0578,0.973941 z m 1.27359,-2.905419 h 0.65061 v 0.396691 q 0.34917,-0.462351 0.83148,-0.462351 0.25622,0 0.44462,0.114904 0.18841,0.114904 0.30898,0.347447 0.17585,-0.232543 0.37932,-0.347447 0.20347,-0.114904 0.43457,-0.114904 0.29391,0 0.49738,0.131319 0.20348,0.128583 0.30396,0.380276 0.0728,0.186035 0.0728,0.601875 v 1.857609 h -0.70587 v -1.66063 q 0,-0.432257 -0.0728,-0.558104 -0.098,-0.164147 -0.30144,-0.164147 -0.14821,0 -0.27883,0.09848 -0.13063,0.09848 -0.1884,0.289994 -0.0578,0.18877 -0.0578,0.599147 v 1.39525 h -0.70588 v -1.59223 q 0,-0.424053 -0.0377,-0.547164 -0.0377,-0.12311 -0.11806,-0.183298 -0.0779,-0.06018 -0.21352,-0.06018 -0.16329,0 -0.29391,0.09575 -0.13062,0.09575 -0.1884,0.276315 -0.0553,0.180564 -0.0553,0.599137 v 1.41167 h -0.70588 z m 5.15466,0.886399 -0.64057,-0.125847 q 0.10802,-0.421313 0.37177,-0.623762 0.26377,-0.20245 0.78376,-0.20245 0.47225,0 0.70336,0.123112 0.2311,0.120374 0.32405,0.309145 0.0954,0.186034 0.0954,0.686685 l -0.008,0.897337 q 0,0.38302 0.0327,0.56632 0.0352,0.18056 0.12811,0.38848 H 161.922 q -0.0276,-0.0766 -0.0678,-0.22707 -0.0175,-0.0684 -0.0251,-0.0903 -0.18087,0.1915 -0.38685,0.28726 -0.20599,0.0957 -0.4396,0.0957 -0.41198,0 -0.65061,-0.24348 -0.23613,-0.24349 -0.23613,-0.61556 0,-0.24622 0.10801,-0.43772 0.10802,-0.19425 0.30144,-0.29547 0.19594,-0.10396 0.56269,-0.180562 0.49487,-0.101229 0.68579,-0.188771 v -0.0766 q 0,-0.2216 -0.10048,-0.314618 -0.10048,-0.09575 -0.37932,-0.09575 -0.1884,0 -0.2939,0.08207 -0.10551,0.07933 -0.17082,0.281788 z m 0.94451,0.62376 q -0.13564,0.0493 -0.42955,0.11764 -0.29391,0.0684 -0.38434,0.13406 -0.13817,0.10669 -0.13817,0.27084 0,0.16141 0.11054,0.27905 0.11053,0.11764 0.28134,0.11764 0.19092,0 0.36424,-0.13679 0.12812,-0.10396 0.16831,-0.25443 0.0276,-0.0985 0.0276,-0.3748 z m 2.06488,1.39526 h -0.70588 v -2.905419 h 0.65564 v 0.413105 q 0.1683,-0.29273 0.30144,-0.385747 0.13564,-0.09301 0.30646,-0.09301 0.24116,0 0.46472,0.144997 l -0.21854,0.670271 q -0.17836,-0.125847 -0.33159,-0.125847 -0.14821,0 -0.2512,0.09028 -0.10299,0.08755 -0.16328,0.320089 -0.0578,0.232541 -0.0578,0.973941 z m 1.04248,0 v -0.76876 h 0.70587 v 0.76876 z"
           id="text119"
           aria-label="transformar." /></g></g></g></svg>
